
<svg xmlns:dc="http://purl.org/dc/elements/1.1/" xmlns:cc="http://creativecommons.org/ns#" xmlns:rdf="http://www.w3.org/1999/02/22-rdf-syntax-ns#" xmlns:svg="http://www.w3.org/2000/svg" xmlns="http://www.w3.org/2000/svg" xmlns:sodipodi="http://sodipodi.sourceforge.net/DTD/sodipodi-0.dtd" xmlns:inkscape="http://www.inkscape.org/namespaces/inkscape" version="1.1" x="0px" y="0px" viewBox="0 0 100 125"><g transform="translate(0,-952.36218)"><path style="text-indent:0;text-transform:none;direction:ltr;block-progression:tb;baseline-shift:baseline;color:#000000;enable-background:accumulate;" d="m 77.956226,958.34748 a 2.0002,2.0002 0 0 0 -0.7187,0.1563 l -9.625,3.5937 a 2.0002,2.0002 0 0 0 -1.2813,1.5313 l -1.625,9.625 c -4.2538,-5.2287 -10.6845,-8.5625 -17.875,-8.5625 -11.8179,0 -21.565898,9.025 -22.999998,20.625 l -1.875,0 a 2.0002,2.0002 0 0 0 -2,2 l 0,7.9375 a 2.0002,2.0002 0 0 0 2,2 l 1.9376,0 8.031198,47.43752 a 2.0002,2.0002 0 0 0 1.9688,1.6875 l 25.8437,0 a 2.0002,2.0002 0 0 0 1.9687,-1.6875 l 8.0626,-47.43752 1.9374,0 a 2.0002,2.0002 0 0 0 2,-2 l 0,-7.9375 a 2.0002,2.0002 0 0 0 -2,-2 l -1.875,0 c -0.2995,-2.4395 -0.9587,-4.7547 -1.9374,-6.9063 l 2.1874,-12.9687 8.5626,-3.1875 a 2.0002,2.0002 0 0 0 -0.6876,-3.9063 z m -31.125,10.3438 c 9.6221,0 17.5805,7.1894 18.9688,16.625 l -37.937498,0 c 1.3969,-9.4356 9.347798,-16.625 18.968698,-16.625 z m -22.874998,20.625 45.749998,0 0,3.9375 -45.749998,0 0,-3.9375 z m 34.874998,10.4687 a 2.0002,2.0002 0 0 1 0.1876,0 2.0002,2.0002 0 0 1 1.9374,2.31252 l -5.2812,35.9376 a 2.0002,2.0002 0 0 1 -1.9688,1.7187 l -8.875,0 a 2.0002,2.0002 0 1 1 0,-4 l 7.125,0 5.0313,-34.2188 a 2.0002,2.0002 0 0 1 1.8437,-1.75002 z" fill="#000000" fill-opacity="1" fill-rule="evenodd" stroke="none" marker="none" visibility="visible" display="inline" overflow="visible"/></g></svg>
