
<svg xmlns:dc="http://purl.org/dc/elements/1.1/" xmlns:cc="http://creativecommons.org/ns#" xmlns:rdf="http://www.w3.org/1999/02/22-rdf-syntax-ns#" xmlns:svg="http://www.w3.org/2000/svg" xmlns="http://www.w3.org/2000/svg" xmlns:sodipodi="http://sodipodi.sourceforge.net/DTD/sodipodi-0.dtd" xmlns:inkscape="http://www.inkscape.org/namespaces/inkscape" version="1.1" x="0px" y="0px" viewBox="0 0 100 125"><g transform="translate(0,-952.36218)"><path style="text-indent:0;text-transform:none;direction:ltr;block-progression:tb;baseline-shift:baseline;color:#000000;enable-background:accumulate;" d="m 77.997884,958.35688 a 2.0002,2.0002 0 0 0 -0.7228,0.1369 l -9.6259,3.5994 a 2.0002,2.0002 0 0 0 -1.2713,1.5384 l -1.6343,9.6222 c -4.2539,-5.2286 -10.6834,-8.5691 -17.8738,-8.5691 -11.8181,0 -21.5804,9.0226 -23.0144,20.6225 l -1.8578,0 a 2.0002,2.0002 0 0 0 -2,2 l 0,7.931 a 2.0002,2.0002 0 0 0 2,2 l 1.9378,0 8.0325,47.46312 a 2.0002,2.0002 0 0 0 1.9722,1.6662 l 25.8397,0 a 2.0002,2.0002 0 0 0 1.9719,-1.6659 l 8.0425,-47.46342 1.9381,0 a 2.0002,2.0002 0 0 0 2,-2 l 0,-7.931 a 2.0002,2.0002 0 0 0 -2,-2 l -1.8563,0 c -0.2997,-2.4395 -0.969,-4.7644 -1.9478,-6.9159 l 2.2004,-12.9547 8.5474,-3.1962 a 2.0002,2.0002 0 0 0 -0.6781,-3.8835 z m -31.1281,10.3278 c 9.6219,0 17.5826,7.1869 18.9709,16.6225 l -37.9497,0 c 1.3969,-9.4356 9.3577,-16.6225 18.9788,-16.6225 z m -22.8722,20.6225 45.7347,0 0,3.931 -45.7347,0 0,-3.931 z m 3.9947,7.931 37.745,0 -7.6472,45.12932 -22.46,0 -7.6378,-45.12932 z" fill="#000000" fill-opacity="1" fill-rule="evenodd" stroke="none" marker="none" visibility="visible" display="inline" overflow="visible"/><path style="text-indent:0;text-transform:none;direction:ltr;block-progression:tb;baseline-shift:baseline;color:#000000;enable-background:accumulate;" d="m 59.065684,999.77788 a 2.0002,2.0002 0 0 0 -2.044,1.73682 l -5.0231,34.2353 -7.1463,0 a 2.0002,2.0002 0 1 0 0,4 l 8.8741,0 a 2.0002,2.0002 0 0 0 1.9787,-1.7097 l 5.2741,-35.9449 a 2.0002,2.0002 0 0 0 -1.9135,-2.31752 z" fill="#000000" fill-opacity="1" fill-rule="evenodd" stroke="none" marker="none" visibility="visible" display="inline" overflow="visible"/></g></svg>
